<?xml version="1.0" encoding="UTF-8" standalone="no"?>
<!-- Created with Inkscape (http://www.inkscape.org/) -->

<svg
   version="1.1"
   id="svg1"
   width="544.76459"
   height="545.41681"
   viewBox="0 0 544.76459 545.41681"
   xmlns="http://www.w3.org/2000/svg"
   xmlns:svg="http://www.w3.org/2000/svg">
  <defs
     id="defs1" />
  <g
     id="g1"
     transform="translate(351.24548,61.587744)">
    <path
       style="fill:#ffffff"
       d="m -154.04853,480.84388 c -49.6069,-14.92977 -95.5357,-45.59371 -130.38809,-87.05244 -35.0543,-41.6989 -58.16875,-95.00659 -65.44537,-150.93332 -1.79047,-13.76126 -1.82532,-52.38365 -0.0587,-65.06666 8.6701,-62.24505 35.27211,-116.312646 78.49249,-159.533022 43.22012,-43.220127 97.48043,-69.912743 159.53302,-78.480084 13.192724,-1.821464 52.940604,-1.821464 66.133334,0 62.05258,8.567341 116.31289,35.259957 159.533016,78.480084 43.33646,43.336466 69.00705,95.508952 78.4955,159.533022 1.72212,11.62012 1.68864,51.74592 -0.0543,65.06666 -6.04547,46.20381 -22.16937,89.19293 -47.64189,127.02151 -26.69263,39.64053 -64.831356,73.60269 -105.708656,94.1325 -11.32322,5.68686 -34.4606397,14.76016 -43.7893897,17.17193 -3.6478,0.94307 -7.3466903,1.98879 -8.2197503,2.32381 -1.39214,0.53422 -1.63218,-7.30727 -1.95159,-63.75364 -0.31697,-56.0149 -0.58887,-65.00576 -2.09633,-69.32015 -2.49595,-7.14342 -4.64432,-11.05486 -11.2252,-20.43716 -3.2127,-4.58032 -5.66881,-8.46773 -5.45801,-8.6387 0.21079,-0.17096 4.70325,-1.13705 9.98325,-2.14686 11.79812,-2.25642 32.0898203,-8.8931 41.2084,-13.47778 28.04724,-14.10172 46.94546,-34.19986 57.89754,-61.57371 6.26441,-15.65739 8.43486,-27.12888 8.41989,-44.50175 -0.0221,-25.69831 -5.99067,-44.26535 -22.41248,-69.72122 l -5.9343,-9.19891 1.834,-7.47327 c 4.09408,-16.682686 3.23227,-37.922536 -2.24182,-55.251076 -2.53675,-8.03023 -2.75497,-8.33996 -5.50633,-7.81501 -1.5757,0.30063 -5.5049,0.84471 -8.73157,1.20907 -3.22667,0.36435 -8.26667,1.41772 -11.2,2.34082 -6.55962,2.06426 -24.8536097,11.13233 -37.3549997,18.51634 -10.4947303,6.19876 -9.6088303,6.1305 -28.2450003,2.17634 -28.25951,-5.996 -57.07381,-5.996 -85.333324,0 -19.08633,4.04968 -17.25709,4.29752 -31.80062,-4.30862 -20.98896,-12.42023 -32.68851,-17.28435 -44.99938,-18.70862 -3.22667,-0.3733 -7.15587,-0.9247 -8.73157,-1.22533 -2.75136,-0.52495 -2.96958,-0.21522 -5.50633,7.81501 -5.48227,17.35445 -6.33583,38.56688 -2.22589,55.317446 l 1.84993,7.53963 -5.89848,8.46037 c -13.43383,19.26858 -20.43818,40.31315 -21.79089,65.47077 -2.28454,42.48755 16.79457,80.36367 51.90323,103.03903 14.92856,9.6418 35.54647,17.66269 54.93333,21.37047 5.28,1.00981 9.76069,1.96412 9.95709,2.1207 0.1964,0.15657 -2.50081,4.52399 -5.99381,9.70537 -6.27127,9.30256 -9.93416,17.41866 -11.3231,25.08931 -0.7088,3.91446 -0.75529,3.9448 -8.78182,5.73053 -9.00709,2.00389 -15.16092,1.58878 -22.08835,-1.48996 -6.76837,-3.00805 -10.93207,-7.07306 -17.978,-17.55186 -14.69697,-21.85754 -31.05811,-32.99857 -50.78544,-34.5821 -7.7926,-0.62551 -7.79338,-0.62531 -7.26043,1.93292 0.29315,1.40718 0.81096,6.15851 1.15068,10.55851 1.36743,17.7106 1.68926,19.19801 4.15943,19.22343 7.45719,0.0767 17.20699,7.98256 26.40359,21.40995 10.83574,15.82061 20.73441,24.40973 34.00683,29.50788 11.22638,4.31224 24.19732,5.63242 34.93333,3.55551 l 4.53333,-0.87699 v 45.19011 c 0,24.85455 -0.36,45.14698 -0.8,45.09427 -0.44,-0.0527 -5.12,-1.39598 -10.4,-2.98506 z"
       id="path1" />
  </g>
</svg>
