<?xml version="1.0" encoding="UTF-8" standalone="no"?>
<!-- Created with Inkscape (http://www.inkscape.org/) -->

<svg
   version="1.1"
   id="svg1"
   width="27.621656"
   height="27.629797"
   viewBox="0 0 27.621657 27.629797"
   sodipodi:docname="licenca.svg"
   inkscape:version="1.3 (0e150ed6c4, 2023-07-21)"
   xmlns:inkscape="http://www.inkscape.org/namespaces/inkscape"
   xmlns:sodipodi="http://sodipodi.sourceforge.net/DTD/sodipodi-0.dtd"
   xmlns="http://www.w3.org/2000/svg"
   xmlns:svg="http://www.w3.org/2000/svg">
  <defs
     id="defs1" />
  <sodipodi:namedview
     id="namedview1"
     pagecolor="#505050"
     bordercolor="#eeeeee"
     borderopacity="1"
     inkscape:showpageshadow="0"
     inkscape:pageopacity="0"
     inkscape:pagecheckerboard="0"
     inkscape:deskcolor="#d1d1d1"
     inkscape:zoom="14.510701"
     inkscape:cx="4.7895687"
     inkscape:cy="11.681034"
     inkscape:window-width="1920"
     inkscape:window-height="1011"
     inkscape:window-x="0"
     inkscape:window-y="0"
     inkscape:window-maximized="1"
     inkscape:current-layer="g1" />
  <g
     inkscape:groupmode="layer"
     inkscape:label="Image"
     id="g1"
     transform="translate(0.71085161,1.7553717)">
    <path
       style="fill:#ffffff"
       d="m 6.7083898,25.237857 c 0.0013,-0.691064 0.07427,-0.953269 0.331003,-1.189288 0.280279,-0.257664 0.453268,-0.28701 1.691873,-0.28701 1.266886,0 1.226499,0.01056 1.226499,-0.32054 0,-0.217253 0.2006892,-0.798623 0.3942932,-1.142214 0.244657,-0.434196 0.805812,-0.968326 1.271621,-1.210382 l 0.392776,-0.204104 v -6.281471 c 0,-3.454809 -0.01957,-6.2814702 -0.04348,-6.2814702 -0.02392,0 -0.149263,-0.103612 -0.278548,-0.2302486 C 11.425196,7.8274174 11.173432,7.3288886 11.11987,6.9534317 L 11.08316,6.6960953 h 2.016818 2.016817 l -0.03671,0.2573364 c -0.05356,0.3754569 -0.305325,0.8739857 -0.574552,1.1376975 -0.129285,0.1266366 -0.254632,0.2302486 -0.278548,0.2302486 -0.02392,0 -0.04349,2.8266612 -0.04349,6.2814702 v 6.281471 l 0.392777,0.204104 c 0.465808,0.242056 1.026963,0.776186 1.27162,1.210382 0.193604,0.343591 0.394294,0.924961 0.394294,1.142214 0,0.331181 -0.04138,0.320431 1.238302,0.32173 1.023966,0.001 1.199991,0.01386 1.389238,0.101205 0.486129,0.224363 0.623024,0.52884 0.623024,1.385707 v 0.624765 H 13.099977 6.7071998 Z m -3.17049,-6.323607 c -0.78958,-0.145818 -1.680105,-0.533118 -2.309381,-1.004378 -0.72181196,-0.54056 -1.41470196,-1.388943 -1.78138996,-2.181155 -0.245716,-0.530859 -0.273654,-0.496158 0.424267,-0.526978 l 0.613407,-0.02709 1.80670796,-4.788383 c 0.993689,-2.6336104 1.840257,-4.821932 1.881262,-4.8629367 0.181034,-0.181034 0.646493,-0.1779418 0.798574,0.00531 0.03607,0.043463 0.877374,2.2315968 1.869562,4.8625197 l 1.803977,4.783495 0.602263,0.01532 c 0.696576,0.01772 0.682076,6.54e-4 0.444944,0.523638 -0.742324,1.63716 -2.345045,2.882508 -4.122591,3.20334 -0.506283,0.09138 -1.529547,0.09002 -2.031602,-0.0027 z m 3.844281,-4.078199 c -0.0752,-0.201129 -0.738315,-1.960629 -1.473586,-3.910001 -1.336736,-3.5439963 -1.336862,-3.5442958 -1.412762,-3.3589168 -0.04175,0.1019676 -0.692858,1.8188046 -1.44691,3.8151928 -0.754052,1.996388 -1.387848,3.67246 -1.408435,3.724605 -0.03537,0.08959 0.12528,0.09481 2.920495,0.09481 h 2.957927 z M 20.603363,18.917714 C 18.825622,18.573166 17.243058,17.33505 16.50786,15.713607 16.270727,15.190619 16.256222,15.207686 16.952856,15.189969 l 0.602315,-0.01532 1.806112,-4.790239 c 0.993361,-2.6346315 1.838825,-4.8229531 1.878809,-4.8629369 0.180961,-0.1809604 0.64566,-0.1748528 0.799496,0.010508 0.0376,0.045304 0.879981,2.2334372 1.871962,4.8625189 l 1.803601,4.780149 0.613406,0.02709 c 0.697922,0.03082 0.669984,-0.0039 0.424267,0.526978 -0.280265,0.605501 -0.651308,1.114929 -1.214273,1.667153 -0.749195,0.7349 -1.500045,1.164614 -2.521005,1.44278 -0.530579,0.144559 -1.852826,0.187862 -2.414183,0.07906 z m 3.956103,-3.810783 C 24.538876,15.054791 23.905083,13.378714 23.151031,11.382326 22.396979,9.3859378 21.745869,7.6691008 21.70412,7.5671332 21.62822,7.3817542 21.6281,7.3820537 20.291358,10.92605 c -0.735271,1.949372 -1.398384,3.708872 -1.473585,3.910001 l -0.13673,0.365688 h 2.957927 c 2.795215,0 2.955868,-0.0052 2.920496,-0.09481 z M 12.384976,5.2689685 C 11.922969,5.0750217 11.601298,4.776451 11.375983,4.3324347 11.247944,4.080116 11.146186,3.5421923 11.18655,3.3310403 11.2096,3.21045 11.16743,3.1564841 10.883135,2.9427756 10.35802,2.5480403 10.041953,2.4474957 9.3347398,2.4502133 c -0.763759,0.00293 -1.138741,0.1207462 -2.581449,0.811036 -0.585485,0.2801359 -1.089711,0.5093381 -1.120503,0.5093381 -0.03079,0 -0.07197,0.05036 -0.0915,0.1119118 -0.05202,0.1639095 -0.34185,0.4765038 -0.53386,0.575796 -0.370619,0.1916544 -1.010193,0.049195 -1.271703,-0.2832608 -0.285886,-0.3634456 -0.2987,-0.971653 -0.02765,-1.3124292 0.390461,-0.490907 1.116517,-0.5825947 1.544726,-0.1950709 0.08594,0.077771 0.17294,0.04669 1.065266,-0.3805624 0.534428,-0.2558879 1.236776,-0.5546752 1.560773,-0.663972 0.52725,-0.1778611 0.663018,-0.2013797 1.293376,-0.2240457 0.543577,-0.019546 0.784646,-0.00486 1.0564342,0.064373 0.422967,0.1077366 0.924539,0.3390095 1.214426,0.5599671 l 0.212169,0.1617191 0.248328,-0.190272 c 0.13658,-0.1046496 0.331342,-0.2251979 0.432805,-0.2678851 l 0.184477,-0.077613 -0.13987,-0.091753 C 12.072254,1.3549649 11.853013,0.93987594 11.855398,0.56239514 c 8.36e-4,-0.1322686 0.06903,-0.3903796 0.158652,-0.6004698 0.149469,-0.350391 1.013831,-1.71729704 1.085932,-1.71729704 0.0721,0 0.936463,1.36690604 1.085932,1.71729704 0.08962,0.2100902 0.157816,0.4682012 0.158652,0.6004698 0.0024,0.3774808 -0.216856,0.79256976 -0.525588,0.99509466 l -0.139869,0.091753 0.184477,0.077613 c 0.101462,0.042687 0.296225,0.1632355 0.432805,0.2678851 l 0.248328,0.190272 0.212169,-0.1617191 c 0.289887,-0.2209576 0.791459,-0.4522305 1.214426,-0.5599671 0.271788,-0.069229 0.512857,-0.083918 1.056433,-0.064373 0.630358,0.022666 0.766127,0.046185 1.293376,0.2240457 0.323998,0.1092968 1.026346,0.4080841 1.560774,0.663972 0.892326,0.4272521 0.979329,0.4583338 1.065266,0.3805624 0.428209,-0.3875238 1.154265,-0.2958361 1.544726,0.1950709 0.271049,0.3407762 0.258235,0.9489836 -0.02765,1.3124292 -0.261509,0.3324555 -0.901083,0.4749152 -1.271702,0.2832608 -0.19201,-0.099292 -0.481838,-0.4118865 -0.533861,-0.575796 -0.01954,-0.061552 -0.06071,-0.1119118 -0.0915,-0.1119118 -0.03079,0 -0.535018,-0.2292022 -1.120503,-0.5093381 -1.442708,-0.6902898 -1.81769,-0.8081011 -2.581448,-0.811036 -0.707214,-0.00272 -1.023281,0.097827 -1.548395,0.4925623 -0.284295,0.2137085 -0.326467,0.2676744 -0.303415,0.3882647 0.04211,0.2202982 -0.06338,0.7523078 -0.204343,1.030475 -0.176089,0.3474953 -0.539508,0.6985191 -0.896443,0.8658673 -0.434762,0.203837 -1.098121,0.2218952 -1.527642,0.041586 z"
       id="path1" />
  </g>
</svg>
